<svg viewBox="0 0 32 32" xmlns="http://www.w3.org/2000/svg" xmlns:xlink="http://www.w3.org/1999/xlink"><linearGradient id="linear-gradient" gradientUnits="userSpaceOnUse" x1="2.5" x2="29.5" y1="16" y2="16"><stop offset="0" stop-color="#6a0dad"/><stop offset="1" stop-color="#00bfff"/></linearGradient><g id="_33._markdown_Markdown_Document_" data-name="33. markdown (Markdown Document)"><path d="m28 19.5h-2.5v-9.5s0 0 0-.07 0 0 0-.06a.4.4 0 0 0 -.12-.22l-7-7a.48.48 0 0 0 -.23-.13h-10.15a1.5 1.5 0 0 0 -1.5 1.48v15.5h-2.5a1.5 1.5 0 0 0 -1.5 1.5v7a1.5 1.5 0 0 0 1.5 1.5h24a1.5 1.5 0 0 0 1.5-1.5v-7a1.5 1.5 0 0 0 -1.5-1.5zm-4.21-10h-5.29v-5.29zm-16.29-5.5a.5.5 0 0 1 .5-.5h9.5v6.5a.5.5 0 0 0 .5.5h6.5v9h-17zm21 24a.5.5 0 0 1 -.5.5h-24a.5.5 0 0 1 -.5-.5v-7a.5.5 0 0 1 .5-.5h24a.5.5 0 0 1 .5.5zm-13-22a.5.5 0 0 1 -.5.5h-6a.5.5 0 0 1 0-1h6a.5.5 0 0 1 .5.5zm-1 3a.5.5 0 0 1 -.5.5h-5a.5.5 0 0 1 0-1h5a.5.5 0 0 1 .5.5zm-1 3a.5.5 0 0 1 -.5.5h-4a.5.5 0 0 1 0-1h4a.5.5 0 0 1 .5.5zm-2.5 11v3a.5.5 0 0 1 -1 0v-3a.5.5 0 0 0 -.5-.5h-.5v3.5a.5.5 0 0 1 -1 0v-3.5h-.5a.5.5 0 0 0 -.5.5v3a.5.5 0 0 1 -1 0v-3a1.5 1.5 0 0 1 1.5-1.5h2a1.5 1.5 0 0 1 1.5 1.5zm3-1.5a2 2 0 0 0 -2 2v2.5a.5.5 0 0 0 1 0v-1.5h2v1.5a.5.5 0 0 0 1 0v-2.5a2 2 0 0 0 -2-2zm-1 2a1 1 0 0 1 2 0zm8-.5a1.5 1.5 0 0 0 -1.5-1.5h-1a1.5 1.5 0 0 0 -1.5 1.5v3a.5.5 0 0 0 1 0v-1.07l2.22 1.49a.57.57 0 0 0 .28.08.52.52 0 0 0 .42-.22.51.51 0 0 0 -.14-.7l-1.63-1.08h.35a1.5 1.5 0 0 0 1.5-1.5zm-3 0a.5.5 0 0 1 .5-.5h1a.5.5 0 0 1 0 1h-1.5zm7.78-.58-2.38 1.58 2.38 1.58a.51.51 0 0 1 .14.7.52.52 0 0 1 -.42.22.57.57 0 0 1 -.28-.08l-2.22-1.49v1.07a.5.5 0 0 1 -1 0v-4a.5.5 0 0 1 1 0v1.07l2.22-1.49a.5.5 0 1 1 .56.84z" fill="url(#linear-gradient)"/></g></svg>