<svg xmlns="http://www.w3.org/2000/svg" viewBox="0 0 16 16" fill="none">
  <path d="M3 2.75A1.75 1.75 0 0 1 4.75 1h3.5a.75.75 0 0 1 0 1.5h-3.5a.25.25 0 0 0-.25.25v10.5c0 .138.112.25.25.25h6.5a.25.25 0 0 0 .25-.25v-3.5a.75.75 0 0 1 1.5 0v3.5A1.75 1.75 0 0 1 11.25 15h-6.5A1.75 1.75 0 0 1 3 13.25V2.75Z" fill="#424242"/>
  <path d="M9.53 2.47a.75.75 0 0 1 1.06 0l2.94 2.94a.75.75 0 0 1 0 1.06l-4.72 4.72a.75.75 0 0 1-.33.19l-2.13.53a.75.75 0 0 1-.91-.91l.53-2.13a.75.75 0 0 1 .19-.33l4.72-4.72Zm-2.22 7.1-.2.81.81-.2 3.89-3.89-.61-.61-3.89 3.89Zm4.95-4.95.2-.2-.88-.88-.2.2.88.88Z" fill="#0F6CBD"/>
</svg>