<svg width="40" height="16" viewBox="0 0 40 16" fill="none" xmlns="http://www.w3.org/2000/svg">
  <rect x="0.75" y="0.75" width="38.5" height="14.5" rx="7.25" fill="#E7F6EC" stroke="#2E7D32" stroke-width="1.5"/>
  <path d="M8.72 11L7.06 5.18H8.19L9.3 9.49L10.48 5.18H11.43L12.6 9.49L13.72 5.18H14.85L13.18 11H12.2L10.96 6.6L9.7 11H8.72ZM15.97 11V5.18H17.07V11H15.97ZM18.57 6.16V5.18H23.33V6.16H21.5V11H20.4V6.16H18.57ZM24.21 11V5.18H25.31V7.54H27.96V5.18H29.06V11H27.96V8.5H25.31V11H24.21Z" fill="#1B5E20"/>
</svg>
